<svg xmlns="http://www.w3.org/2000/svg" width="86" height="87" viewBox="0 0 86 87">
  <g id="Group_9862" data-name="Group 9862" transform="translate(-0.128)">
    <g id="cheek" transform="translate(18.057 4.05)">
      <path id="Path_4657" data-name="Path 4657" d="M103.526,257.344a1.2,1.2,0,0,0-1.2,1.2,1.24,1.24,0,0,1-2.48,0,1.2,1.2,0,0,0-2.393,0,3.633,3.633,0,0,0,7.265,0A1.2,1.2,0,0,0,103.526,257.344Zm0,0" transform="translate(-81.91 -216.291)" fill="#006bca"/>
      <path id="Path_4658" data-name="Path 4658" d="M170.609,262.173a3.638,3.638,0,0,0,3.633-3.633,1.2,1.2,0,0,0-2.393,0,1.24,1.24,0,0,1-2.48,0,1.2,1.2,0,0,0-2.393,0A3.637,3.637,0,0,0,170.609,262.173Zm0,0" transform="translate(-140.34 -216.291)" fill="#006bca"/>
      <path id="Path_4659" data-name="Path 4659" d="M56.554,273.566a1.2,1.2,0,1,0-2.391.095,5.235,5.235,0,0,0,1.047,2.858,1.2,1.2,0,1,0,1.945-1.394A2.9,2.9,0,0,1,56.554,273.566Zm0,0" transform="translate(-45.522 -228.959)" fill="#006bca"/>
      <path id="Path_4660" data-name="Path 4660" d="M115.369,293.413a10.619,10.619,0,0,1-1.529,1.093,1.2,1.2,0,0,0,1.188,2.078,12.9,12.9,0,0,0,1.874-1.334,1.2,1.2,0,1,0-1.534-1.836Zm0,0" transform="translate(-95.174 -246.372)" fill="#006bca"/>
      <path id="Path_4661" data-name="Path 4661" d="M80.624,301.429a6.694,6.694,0,0,1-1.919-.626,1.2,1.2,0,0,0-1.061,2.145,9.1,9.1,0,0,0,2.618.847,1.217,1.217,0,0,0,.183.014,1.2,1.2,0,0,0,.18-2.38Zm0,0" transform="translate(-64.698 -252.712)" fill="#006bca"/>
      <path id="Path_4662" data-name="Path 4662" d="M175.232,294.505a10.646,10.646,0,0,1-1.529-1.093,1.2,1.2,0,0,0-1.534,1.836,12.869,12.869,0,0,0,1.875,1.334,1.2,1.2,0,0,0,1.187-2.078Zm0,0" transform="translate(-144.343 -246.372)" fill="#006bca"/>
      <path id="Path_4663" data-name="Path 4663" d="M207.381,300.8a6.683,6.683,0,0,1-1.919.626,1.2,1.2,0,0,0,.18,2.379,1.217,1.217,0,0,0,.183-.014,9.14,9.14,0,0,0,2.617-.847,1.2,1.2,0,0,0-1.061-2.145Zm0,0" transform="translate(-171.833 -252.712)" fill="#006bca"/>
      <path id="Path_4664" data-name="Path 4664" d="M238.384,272.422a1.2,1.2,0,0,0-1.243,1.148,2.9,2.9,0,0,1-.6,1.559,1.2,1.2,0,1,0,1.945,1.394,5.24,5.24,0,0,0,1.047-2.858A1.2,1.2,0,0,0,238.384,272.422Zm0,0" transform="translate(-198.618 -228.963)" fill="#006bca"/>
      <path id="Path_4665" data-name="Path 4665" d="M129.571,182.973a1.2,1.2,0,0,0-1.2,1.2v1.117a1.2,1.2,0,0,0,2.393,0v-1.117A1.2,1.2,0,0,0,129.571,182.973Zm0,0" transform="translate(-107.896 -153.784)" fill="#006bca"/>
      <path id="Path_4666" data-name="Path 4666" d="M129.571,212.973a1.2,1.2,0,0,0-1.2,1.2v2.393a1.2,1.2,0,1,0,2.393,0v-2.393A1.2,1.2,0,0,0,129.571,212.973Zm0,0" transform="translate(-107.896 -178.998)" fill="#006bca"/>
      <path id="Path_4667" data-name="Path 4667" d="M168.442,217.759a1.2,1.2,0,0,0,1.2-1.2v-2.393a1.2,1.2,0,0,0-2.393,0v2.393A1.2,1.2,0,0,0,168.442,217.759Zm0,0" transform="translate(-140.566 -178.998)" fill="#006bca"/>
      <path id="Path_4668" data-name="Path 4668" d="M168.442,186.486a1.2,1.2,0,0,0,1.2-1.2v-1.116a1.2,1.2,0,1,0-2.393,0v1.116A1.2,1.2,0,0,0,168.442,186.486Zm0,0" transform="translate(-140.566 -153.787)" fill="#006bca"/>
      <path id="Path_4669" data-name="Path 4669" d="M45.427,69.867l-10.773-4.59a1.643,1.643,0,0,1-1-1.513v-1.59a23.382,23.382,0,0,0,10.332-10.1,31.044,31.044,0,0,0,3.109-9.146,3.859,3.859,0,0,0,.9-.631c3.409-3.079,2.891-12.715,2.82-13.815a26.9,26.9,0,0,0-.382-2.994,1.2,1.2,0,1,0-2.352.441,24.549,24.549,0,0,1,.346,2.718c.23,3.561-.087,9.755-1.87,11.708-.656-2.721-3.657-10.6-16.85-15.51a37.488,37.488,0,0,1-7.45-3.969c-4.526-3.184-6.524-6.491-5.938-9.829,0-.029.01-.064.012-.093a9.577,9.577,0,0,1,4.96-6.933c1.606,2.413,4.366,3.764,7.086,4.938,2.89,1.248,5.376,2.458,6.535,4.638a1.2,1.2,0,1,0,2.113-1.123c-1.647-3.1-5.145-4.609-7.7-5.712-2.313-1-4.489-2.047-5.782-3.711.094-.031.185-.062.282-.091A14.53,14.53,0,0,1,36.428,5.227a27.509,27.509,0,0,1,7.239,7.827.363.363,0,0,1,.042.282l-.247.922a2.764,2.764,0,0,0,.3,2.131c.226.375.451.742.675,1.106.722,1.175,1.4,2.286,2,3.505a1.2,1.2,0,0,0,2.149-1.053c-.647-1.322-1.359-2.48-2.112-3.706-.221-.358-.442-.719-.664-1.087a.36.36,0,0,1-.04-.278l.246-.922A2.765,2.765,0,0,0,45.7,11.8a29.884,29.884,0,0,0-7.867-8.5A16.937,16.937,0,0,0,23.137.671c-8.124,2.427-9.1,9.261-9.186,10.009a8.923,8.923,0,0,0-.1,2.291,14.653,14.653,0,0,0-4.069,1.912,5.619,5.619,0,0,0-2.9,5.253c0,.008,0,.017,0,.026s0,.024,0,.044q-.011.355-.01.743a2.632,2.632,0,0,0-2.808,1.145c-.608.818-1.667,2.969-1.936,8.187a24.515,24.515,0,0,0,.47,6.345A13.65,13.65,0,0,0,5.042,41.88a2.084,2.084,0,0,0,.761.647,31.273,31.273,0,0,0,3.18,9.55A23.381,23.381,0,0,0,19.312,62.171v1.593a1.643,1.643,0,0,1-1,1.513l-.219.093a1.2,1.2,0,1,0,.937,2.2l.219-.093a4.033,4.033,0,0,0,2.455-3.715v-.551a13.854,13.854,0,0,0,9.556,0v.55a4.032,4.032,0,0,0,2.455,3.715l10.773,4.59a4.779,4.779,0,0,1,2.911,4.4v2.813H5.567V76.472a4.779,4.779,0,0,1,2.91-4.4L14,69.716a1.2,1.2,0,0,0-.938-2.2l-5.52,2.352a7.169,7.169,0,0,0-4.365,6.605v4.009a1.2,1.2,0,0,0,1.2,1.2H48.6a1.2,1.2,0,0,0,1.2-1.2V76.472a7.17,7.17,0,0,0-4.365-6.605ZM4.94,36.129A22.11,22.11,0,0,1,4.519,30.4c.165-3.2.74-5.906,1.467-6.883.151-.2.228-.251.29-.251a.229.229,0,0,1,.072.016,2.511,2.511,0,0,0,.606.124,25.814,25.814,0,0,0,.535,4.373,1.2,1.2,0,0,0,2.325-.565,37.827,37.827,0,0,1-.54-7.025c0-.007,0-.014,0-.021a3.335,3.335,0,0,1,1.861-3.314,12.179,12.179,0,0,1,3.246-1.548c1.239,3.4,4.338,6.142,7.358,8.123-.8.4-1.6.733-2.221.987l-.11.045a21.33,21.33,0,0,0-8.267,5.992A24.335,24.335,0,0,0,6.58,39.9a10.658,10.658,0,0,1-1.64-3.769ZM30.778,60.841a11.544,11.544,0,0,1-8.587,0,21.158,21.158,0,0,1-11.1-9.894,28.836,28.836,0,0,1-2.928-8.813,2.111,2.111,0,0,0,.542-.942c1.01-3.728,2.076-6.568,4.273-9.2a18.93,18.93,0,0,1,7.339-5.313l.109-.044a24.98,24.98,0,0,0,3.683-1.775,38.287,38.287,0,0,0,4.758,2.232c4.144,1.543,9.8,4.405,13.192,9.275a12.624,12.624,0,0,1,2.286,5.173,1.125,1.125,0,0,0,.023.143,2.15,2.15,0,0,0,.368.833,28.669,28.669,0,0,1-2.861,8.431,21.159,21.159,0,0,1-11.1,9.894Zm0,0" transform="translate(-1.76 0)" fill="#006bca"/>
      <path id="Path_4670" data-name="Path 4670" d="M257.881,332.312l-.365-4.472a1.2,1.2,0,0,0-1.767-.952l-4.179,2.29a1.2,1.2,0,1,0,1.15,2.1l.5-.275a15.316,15.316,0,0,1-4.628,4.977,1.2,1.2,0,0,0,1.207,2.066,17.37,17.37,0,0,0,5.649-6.1l.046.566a1.2,1.2,0,0,0,1.191,1.1c.032,0,.065,0,.1,0A1.2,1.2,0,0,0,257.881,332.312Zm0,0" transform="translate(-208.44 -274.617)" fill="#006bca"/>
      <path id="Path_4671" data-name="Path 4671" d="M2.391,332.506l.046-.566a17.375,17.375,0,0,0,5.648,6.1,1.2,1.2,0,0,0,1.2-2.068A15.014,15.014,0,0,1,4.659,331l.508.279a1.2,1.2,0,1,0,1.15-2.1l-4.179-2.29a1.2,1.2,0,0,0-1.767.952l-.365,4.472A1.2,1.2,0,0,0,1.1,333.6c.034,0,.066,0,.1,0a1.2,1.2,0,0,0,1.191-1.1Zm0,0" transform="translate(-0.002 -274.617)" fill="#006bca"/>
    </g>
    <rect id="Rectangle_1082" data-name="Rectangle 1082" width="86" height="87" transform="translate(0.128)" fill="none"/>
  </g>
</svg>
