<svg id="Group_9865" data-name="Group 9865" xmlns="http://www.w3.org/2000/svg" width="87.989" height="87" viewBox="0 0 87.989 87">
  <g id="child" transform="translate(7.399 10.387)">
    <circle id="Ellipse_102" data-name="Ellipse 102" cx="3.004" cy="3.004" r="3.004" transform="translate(18.77 38.209)" fill="#006bca"/>
    <circle id="Ellipse_103" data-name="Ellipse 103" cx="3.004" cy="3.004" r="3.004" transform="translate(49.864 38.209)" fill="#006bca"/>
    <path id="Path_4672" data-name="Path 4672" d="M74.642,59.1a8.745,8.745,0,0,0-7.2-8.59V49.215a30.123,30.123,0,0,0-60.246,0v1.294a8.725,8.725,0,0,0,.105,17.2c.582,6.628,3.619,11.524,9.053,14.571,4.833,2.709,11.69,4.026,20.965,4.026s16.132-1.317,20.965-4.026c5.434-3.047,8.47-7.942,9.053-14.571A8.745,8.745,0,0,0,74.642,59.1Zm-71.556,0A5.658,5.658,0,0,1,7.2,53.667V64.532A5.658,5.658,0,0,1,3.086,59.1Zm61.272,6.184c0,6.767-2.48,11.447-7.583,14.308-4.359,2.444-10.722,3.632-19.454,3.632s-15.1-1.188-19.454-3.632c-5.1-2.861-7.583-7.541-7.583-14.308V49.215a27.054,27.054,0,0,1,19.27-25.864c8.482.107,13,6.222,13,10.65a6.161,6.161,0,0,1-6.159,6.15,4.621,4.621,0,0,1-4.618-4.612,3.388,3.388,0,0,1,3.386-3.382,1.541,1.541,0,1,0,0-3.082,6.475,6.475,0,0,0-6.472,6.463,7.708,7.708,0,0,0,7.7,7.694A9.249,9.249,0,0,0,45.639,34a13.19,13.19,0,0,0-4.3-9.2,15.694,15.694,0,0,0-3.643-2.578,27.049,27.049,0,0,1,26.666,27V65.284Zm3.086-.752V53.667a5.644,5.644,0,0,1,0,10.865Z" transform="translate(0 -19.132)" fill="#006bca"/>
    <path id="Path_4673" data-name="Path 4673" d="M163.688,253.318a8.562,8.562,0,0,1-12.1,0,1.564,1.564,0,0,0-2.211,2.212,11.694,11.694,0,0,0,16.519,0,1.564,1.564,0,0,0-2.212-2.212Z" transform="translate(-120.319 -207.91)" fill="#006bca"/>
  </g>
  <rect id="Rectangle_1079" data-name="Rectangle 1079" width="87.989" height="87" fill="none"/>
</svg>
