<svg id="Group_9868" data-name="Group 9868" xmlns="http://www.w3.org/2000/svg" width="87.989" height="87" viewBox="0 0 87.989 87">
  <rect id="Rectangle_1076" data-name="Rectangle 1076" width="87.989" height="87" fill="none"/>
  <g id="eye" transform="translate(7.728 22.572)">
    <g id="Group_9850" data-name="Group 9850" transform="translate(0 0)">
      <g id="Group_9849" data-name="Group 9849">
        <path id="Path_4686" data-name="Path 4686" d="M72.948,128.66a46.032,46.032,0,0,0-15.589-12.937A44.483,44.483,0,0,0,37.647,110.9c-.191-.005-.956-.005-1.146,0a44.486,44.486,0,0,0-19.712,4.821A46.031,46.031,0,0,0,1.2,128.66a5.808,5.808,0,0,0,0,7.077A46.032,46.032,0,0,0,16.79,148.675,44.483,44.483,0,0,0,36.5,153.5c.191.005.956.005,1.146,0a44.486,44.486,0,0,0,19.712-4.821,46.032,46.032,0,0,0,15.589-12.937A5.808,5.808,0,0,0,72.948,128.66ZM18.137,145.939A42.99,42.99,0,0,1,3.58,133.857a2.722,2.722,0,0,1,0-3.316,42.988,42.988,0,0,1,14.558-12.082,42.232,42.232,0,0,1,4.9-2.1,21.467,21.467,0,0,0,0,31.689A42.238,42.238,0,0,1,18.137,145.939Zm18.937,4.507a18.25,18.25,0,1,1,18-18.248A18.147,18.147,0,0,1,37.074,150.446Zm33.495-16.59a42.988,42.988,0,0,1-14.558,12.082,42.188,42.188,0,0,1-4.9,2.1,21.468,21.468,0,0,0-.006-31.685,42.223,42.223,0,0,1,4.9,2.105A42.99,42.99,0,0,1,70.569,130.54,2.722,2.722,0,0,1,70.569,133.857Z" transform="translate(0.002 -110.897)" fill="#006bca"/>
      </g>
    </g>
    <g id="Group_9852" data-name="Group 9852" transform="translate(29.267 13.492)">
      <g id="Group_9851" data-name="Group 9851" transform="translate(0 0)">
        <path id="Path_4687" data-name="Path 4687" d="M210.614,202.8a7.809,7.809,0,1,0,7.809,7.809A7.818,7.818,0,0,0,210.614,202.8Zm0,12.561a4.752,4.752,0,1,1,4.752-4.752A4.757,4.757,0,0,1,210.614,215.365Z" transform="translate(-202.805 -202.804)" fill="#006bca"/>
      </g>
    </g>
  </g>
</svg>
