<svg id="Group_9861" data-name="Group 9861" xmlns="http://www.w3.org/2000/svg" width="87" height="87" viewBox="0 0 87 87">
  <g id="hair" transform="translate(10.82 10.82)">
    <path id="Path_4674" data-name="Path 4674" d="M63.121,39.06a1.848,1.848,0,0,0-1.848-1.848h-18.6a5.508,5.508,0,0,0-2.968.865c-.968-7.762-1.042-19.784,8.248-35.267A1.849,1.849,0,0,0,45.186.44c-12.3,10.251-20.08,20.524-22.3,37.311a5.509,5.509,0,0,0-2.384-.54H1.9A1.848,1.848,0,0,0,.054,39.06V61.232A1.848,1.848,0,0,0,1.9,63.08H61.274a1.848,1.848,0,0,0,1.848-1.848V39.06Zm-22.3,3.7a1.85,1.85,0,0,1,1.848-1.848H59.426v6.55a7.008,7.008,0,0,0-3.92,1.151,3.14,3.14,0,0,1-3.493,0,6.826,6.826,0,0,0-7.593,0c-1.32.88-2.515.569-3.805-.195a9.252,9.252,0,0,0,.211-1.963ZM40.211,9.8c-6.47,15.095-4.627,26.338-3.559,32.854a28.486,28.486,0,0,1,.479,3.8,5.546,5.546,0,0,1-6.488,5.466,5.815,5.815,0,0,1-4.6-5.861c0-18.224,7.732-29.607,14.167-36.258ZM20.5,40.908a1.85,1.85,0,0,1,1.848,1.848v3.3a9.976,9.976,0,0,0,.276,2.322c-1.095.633-2.317,1.268-3.87.232a6.826,6.826,0,0,0-7.593,0,3.14,3.14,0,0,1-3.493,0,7.007,7.007,0,0,0-3.92-1.151v-6.55H20.5ZM3.749,59.384V51.156a3.349,3.349,0,0,1,1.87.527,6.826,6.826,0,0,0,7.593,0,3.14,3.14,0,0,1,3.493,0,6.825,6.825,0,0,0,7.449.092,8.941,8.941,0,0,0,7.416,3.912A9.219,9.219,0,0,0,39.1,51.825a6.825,6.825,0,0,0,7.371-.142,3.14,3.14,0,0,1,3.493,0,6.826,6.826,0,0,0,7.593,0,3.349,3.349,0,0,1,1.87-.527v8.228Z" transform="translate(-0.054 0.001)" fill="#006bca"/>
  </g>
  <rect id="Rectangle_1083" data-name="Rectangle 1083" width="87" height="87" fill="none"/>
</svg>
