<svg id="Group_9866" data-name="Group 9866" xmlns="http://www.w3.org/2000/svg" width="87.989" height="87" viewBox="0 0 87.989 87">
  <g id="Heart_rate" transform="translate(7.509 7.064)">
    <path id="Path_4675" data-name="Path 4675" d="M81.492,61.618a35.556,35.556,0,0,0-.353-5.038,5.956,5.956,0,0,0,.668.05,10.679,10.679,0,0,0,5.139-1.36l.315-.038a4.912,4.912,0,0,0,3.06-2.091,7.091,7.091,0,0,0,1.247-4.118c0-3.338-2.091-6.045-4.723-6.26a29.345,29.345,0,0,0-13.564-.214,20.9,20.9,0,0,0-4.7-2.532,7.271,7.271,0,0,1,1.171-1.411c.768-.718,3.552-.264,5.416.1a12.756,12.756,0,0,0,2.015.151,4.287,4.287,0,0,0,3.06-2.091,7.091,7.091,0,0,0,1.247-4.118c0-3.338-2.091-6.045-4.723-6.26-.932-.29-13.035-3.879-22.532,4.03-.353.29-.68.592-.995.894l-2.531-7.947a3.212,3.212,0,0,0-1.549-1.94,6.2,6.2,0,0,0-7.809,2.091,3.165,3.165,0,0,0-.39,2.406l2.758,12.683c-.013,0-.013.013-.025.013L39.753,26.3c-.554-2.04-3.123-3.073-5.844-2.343s-4.421,2.909-3.9,4.9l2.8,12.847L28.809,29.237A3.212,3.212,0,0,0,27.26,27.3a5.82,5.82,0,0,0-4.295-.4,5.753,5.753,0,0,0-3.514,2.494,3.212,3.212,0,0,0-.39,2.418h.013l7,29.975A31.868,31.868,0,0,0,27,69.175H16v2.519H27.688c4.446,13.854,17.2,23.93,26.1,23.93s21.65-10.076,26.1-23.93H91.567V69.175h-11A31.916,31.916,0,0,0,81.492,61.618Zm5.038-16.373c1.36,0,2.519,1.725,2.519,3.778S87.89,52.8,86.529,52.8s-2.519-1.725-2.519-3.778S85.169,45.245,86.529,45.245ZM76.454,28.872c1.36,0,2.519,1.725,2.519,3.778,0,2.015-1.108,3.7-2.443,3.766a1.507,1.507,0,0,1-.756-.151,3.9,3.9,0,0,1-1.839-3.615c0-2.053,1.159-3.778,2.519-3.778ZM43.418,25.332a.714.714,0,0,1,.113-.554,3.281,3.281,0,0,1,1.99-1.31,3.248,3.248,0,0,1,2.368.139.835.835,0,0,1,.4.466l2.985,9.358a23.16,23.16,0,0,0-2.846,4.5c-.756.076-1.511.151-2.229.252ZM32.461,28.28c-.139-.5.617-1.486,2.1-1.877,1.461-.4,2.632.076,2.783.6l3.9,12.217A24.151,24.151,0,0,0,35.4,41.794ZM26.869,54.086l-5.34-22.8c0-.038-.013-.063-.013-.088a.714.714,0,0,1,.113-.554,3.274,3.274,0,0,1,1.99-1.31,3.248,3.248,0,0,1,2.368.139.835.835,0,0,1,.4.466l4.9,15.29A19.746,19.746,0,0,0,26.869,54.086ZM53.784,93.1C46.063,93.1,34.716,84,30.37,71.694H39.93A1.26,1.26,0,0,0,41.1,70.9l.806-2.015L43.721,80.7a1.259,1.259,0,0,0,2.481.088l5.025-22.142L53.809,70.7a1.278,1.278,0,0,0,1.033.982,1.245,1.245,0,0,0,1.285-.6l2.1-3.5,3.136,15.706a1.26,1.26,0,0,0,1.184,1.008h.05a1.251,1.251,0,0,0,1.209-.919l6.071-21.247,1.562,8.539a1.259,1.259,0,0,0,1.234,1.033H77.2C72.852,84,61.5,93.1,53.784,93.1Zm24.182-23.93H73.721l-2.33-12.821a1.247,1.247,0,0,0-1.171-1.033,1.259,1.259,0,0,0-1.272.919L62.814,77.689l-2.758-13.8a1.259,1.259,0,0,0-2.317-.39L55.61,67.046,52.5,52.537a1.252,1.252,0,0,0-1.222-.995h-.013a1.259,1.259,0,0,0-1.234.982L45.207,73.772,43.7,63.948a1.259,1.259,0,0,0-2.418-.277l-2.2,5.5H29.6a29.552,29.552,0,0,1-1.008-7.557c0-12.746,5.982-19.471,18.741-21.033a24.69,24.69,0,0,0-.907,3.375,20.336,20.336,0,0,0-7.456,5.5C32.625,56.958,33.179,65.195,33.683,67l2.418-.668A19.377,19.377,0,0,1,40.887,51.1a18.088,18.088,0,0,1,17.67-5.882l.529-2.469a20.947,20.947,0,0,0-9.849.239,20.563,20.563,0,0,1,6.612-10.63c5.945-4.962,13.1-4.836,17.116-4.232a7.052,7.052,0,0,0-1.549,4.522,7.482,7.482,0,0,0,.668,3.086,5.423,5.423,0,0,0-4.043,1.02,10.121,10.121,0,0,0-2.859,10.126l2.393-.756a6.629,6.629,0,0,1,0-3.8c7.657,2.972,11.4,9.295,11.4,19.3A29.553,29.553,0,0,1,77.965,69.175ZM75.7,44.64a27.62,27.62,0,0,1,7.267-.063,7.169,7.169,0,0,0-1.474,4.446,6.9,6.9,0,0,0,1.927,4.912,8,8,0,0,1-.793.126,7.378,7.378,0,0,1-1.977-.076A19.693,19.693,0,0,0,75.7,44.64Z" transform="translate(-16 -20.813)" fill="#006bca"/>
  </g>
  <rect id="Rectangle_1078" data-name="Rectangle 1078" width="87.989" height="87" fill="none"/>
</svg>
