<svg xmlns="http://www.w3.org/2000/svg" width="87" height="87" viewBox="0 0 87 87">
  <g id="Group_9863" data-name="Group 9863" transform="translate(-0.333)">
    <g id="Page-1" transform="translate(21.687 7.214)">
      <g id="_004---Pregnant-Woman" data-name="004---Pregnant-Woman" transform="translate(0 0)">
        <path id="Shape" d="M10.071,60.213a26,26,0,0,0-1.989,9.4,1.18,1.18,0,0,0,1.18,1.18h35.4a1.18,1.18,0,0,0,1.163-1.375c-.1-.59-2.442-14.442-7.187-23.929a18.273,18.273,0,0,1-1.616-7.654,72.828,72.828,0,0,0,7.551,1.1l.088,0a1.18,1.18,0,0,0,1.144-.893c1.9-7.6,1.556-18.122,1.329-25.084-.06-1.852-.118-3.459-.118-4.672a8.967,8.967,0,0,0-2.53-6.23A6.382,6.382,0,0,0,39.879,0h-13.9a3.517,3.517,0,0,0-3.029,1.712,21.53,21.53,0,0,1-6.237,6.775,10.91,10.91,0,0,1-1.987,1.037A6.973,6.973,0,0,0,10.295,16.4,8.312,8.312,0,0,0,13,22.239a6.469,6.469,0,0,0-.722.308,5.321,5.321,0,0,0-2.868,3.579A18.713,18.713,0,0,0,1,42.476c0,9.793,4.725,15.009,9.069,17.737ZM24.965,2.933a1.18,1.18,0,0,1,1.011-.573H31.6c-.245,2.285-1.3,7.079-5.82,7.079A30.631,30.631,0,0,1,20.048,8.9a26.193,26.193,0,0,0,4.918-5.962ZM12.653,16.32a4.6,4.6,0,0,1,2.939-4.6,13.215,13.215,0,0,0,1.934-.982A32.648,32.648,0,0,0,25.785,11.8c5.889,0,7.866-5.636,8.2-9.439H36.1a62.88,62.88,0,0,0-1.126,23.776,40.928,40.928,0,0,0-5.531-.681,20.946,20.946,0,0,1-4.463-.617c-.991-.33-2.006-.747-2.978-1.149a27.162,27.162,0,0,0-4.763-1.635,6.378,6.378,0,0,1-4.584-5.733Zm.675,8.333a5.024,5.024,0,0,1,3.255-.329,1.253,1.253,0,0,0,.3.06,26.547,26.547,0,0,1,4.212,1.485c1.015.418,2.064.851,3.133,1.207a22.255,22.255,0,0,0,5.033.73c3.361.251,7.174.536,9.97,2.633a1.18,1.18,0,1,0,1.416-1.888,12.49,12.49,0,0,0-3.155-1.679A59.643,59.643,0,0,1,38.515,2.36h1.364A4.13,4.13,0,0,1,42.8,3.706a6.725,6.725,0,0,1,1.857,4.553c0,1.26.053,2.894.118,4.776.214,6.527.531,16.241-1.028,23.443-3.574-.4-16.009-2.144-26.711-7.945A10.418,10.418,0,0,0,11.9,26.075a3.036,3.036,0,0,1,1.428-1.416Zm-2.9,3.664h.018a7.923,7.923,0,0,1,5.065,2.014,1.217,1.217,0,0,0,.269.2,73.085,73.085,0,0,0,18.853,6.806,20.92,20.92,0,0,0,1.888,9.2c3.744,7.476,6,18.133,6.725,21.891H10.5a23.591,23.591,0,0,1,1.652-7.079A27.213,27.213,0,0,0,23.827,63.89a29.457,29.457,0,0,0,3.268-.182,1.18,1.18,0,0,0-.262-2.346,25.1,25.1,0,0,1-14.656-2.642c-4.023-2.242-8.815-6.876-8.815-16.246,0-6.144,2.394-10.891,7.062-14.159Z" transform="translate(-0.988 0)" fill="#006bca"/>
        <path id="Shape-2" data-name="Shape" d="M12.539,46.437c.67.559,1.383,1.155,2.132,1.8a1.18,1.18,0,0,0,1.534,0c.749-.642,1.462-1.238,2.132-1.8,3.945-3.287,6.541-5.458,6.541-8.823A5.41,5.41,0,0,0,19.569,32a5.672,5.672,0,0,0-4.13,1.776A5.672,5.672,0,0,0,11.31,32,5.41,5.41,0,0,0,6,37.614C6,40.979,8.6,43.15,12.539,46.437ZM11.31,34.36a3.648,3.648,0,0,1,3.077,1.9,1.18,1.18,0,0,0,1.045.643h.007a1.187,1.187,0,0,0,1.05-.643,3.647,3.647,0,0,1,3.079-1.9,3.045,3.045,0,0,1,2.95,3.254c0,2.261-2.141,4.049-5.691,7.012-.445.372-.909.757-1.389,1.163-.48-.406-.944-.792-1.389-1.163C10.5,41.663,8.36,39.874,8.36,37.614a3.045,3.045,0,0,1,2.95-3.254Z" transform="translate(-0.087 5.756)" fill="#006bca"/>
      </g>
    </g>
    <rect id="Rectangle_1081" data-name="Rectangle 1081" width="87" height="87" transform="translate(0.333)" fill="none"/>
  </g>
</svg>
