<svg id="Group_9867" data-name="Group 9867" xmlns="http://www.w3.org/2000/svg" width="87.989" height="87" viewBox="0 0 87.989 87">
  <g id="scalpel" transform="translate(8.587 13.018)">
    <path id="Path_4677" data-name="Path 4677" d="M68.185,6.914a5.307,5.307,0,0,0-1.568-3.781,5.361,5.361,0,0,0-7.569,0L20.8,41.354a2.611,2.611,0,0,0-.723,2.207L.336,63.292a1.147,1.147,0,0,0,.4,1.882,17.015,17.015,0,0,0,5.651.938,14.619,14.619,0,0,0,10.438-4.169L25,53.772a1.145,1.145,0,0,0,.313-1.036l-.622-3.112,2.645-2.645.406.094a3.709,3.709,0,0,0,3.467-.994L62.191,15.12a0,0,0,0,1,0,0L66.617,10.7A5.312,5.312,0,0,0,68.185,6.914Zm-10.937,9.9-2.7-5.94,2.726-2.725,2.7,5.94Zm-4.46,4.457-2.7-5.94,2.726-2.724,2.7,5.94ZM24.7,46.373l-2.067,2.064a1.145,1.145,0,0,0-.313,1.036l.622,3.112-7.727,7.724a13.011,13.011,0,0,1-11.859,3.21L21.383,45.5l.022.008a2.665,2.665,0,0,0,.666.255Zm4.888-1.914a1.411,1.411,0,0,1-1.329.381l-5.672-1.309a.294.294,0,0,1-.131-.073.308.308,0,0,1-.075-.085.5.5,0,0,1-.039-.072.318.318,0,0,1,.084-.326l25.926-25.91,2.7,5.94ZM64.994,9.074,61.706,12.36,59,6.42l1.668-1.666a3.056,3.056,0,1,1,4.322,4.32Z" transform="translate(0 -1.568)" fill="#006bca"/>
    <path id="Path_4678" data-name="Path 4678" d="M13.137,47.907l-2.329,2.329a1.164,1.164,0,1,0,1.647,1.647l2.329-2.329a1.164,1.164,0,0,0-1.647-1.647Z" transform="translate(1.532 5.006)" fill="#006bca"/>
    <path id="Path_4679" data-name="Path 4679" d="M8.8,51.9a1.165,1.165,0,0,0,.827,1.992,1.2,1.2,0,0,0,.827-.338,1.181,1.181,0,0,0,0-1.654A1.219,1.219,0,0,0,8.8,51.9Z" transform="translate(1.394 5.666)" fill="#006bca"/>
  </g>
  <rect id="Rectangle_1077" data-name="Rectangle 1077" width="87.989" height="87" fill="none"/>
</svg>
