<svg id="Group_9864" data-name="Group 9864" xmlns="http://www.w3.org/2000/svg" width="87" height="87" viewBox="0 0 87 87">
  <g id="tooth" transform="translate(10.89 7.214)">
    <g id="Group_9843" data-name="Group 9843" transform="translate(0 0)">
      <g id="Group_9842" data-name="Group 9842">
        <path id="Path_4681" data-name="Path 4681" d="M78.772,1.114A24.071,24.071,0,0,0,59.4,3.377a24.067,24.067,0,0,0-19.37-2.263C28.469,4.823,23.048,21.707,32.319,35.331c4.393,6.452,4.979,11.428,5.6,16.7a42.678,42.678,0,0,0,2.888,12.508c1.32,3.135,3.187,6.72,5.948,6.72h.075c2.221-.052,4.01-2.255,5.8-7.141A57.486,57.486,0,0,0,54.7,55.842c1.018-5.116,2.071-10.406,4.716-10.424h.014c2.617,0,3.667,5.292,4.683,10.409a57.364,57.364,0,0,0,2.064,8.288c1.794,4.894,3.583,7.1,5.8,7.152h.075c2.756,0,4.625-3.591,5.947-6.731A43.253,43.253,0,0,0,80.84,52.254c.669-5.417,1.3-10.533,5.655-16.938C95.875,21.516,90.141,4.758,78.772,1.114Zm5.421,32.637c-4.732,6.961-5.435,12.655-6.116,18.162a40.427,40.427,0,0,1-2.646,11.542c-2.048,4.863-3.236,5.028-3.386,5.028h0c-.054,0-1.334-.091-3.254-5.327a55.453,55.453,0,0,1-1.947-7.871A45.558,45.558,0,0,0,64.7,47.016c-1.219-2.908-2.991-4.383-5.267-4.383h-.038c-2.285.016-4.064,1.5-5.285,4.416A45.5,45.5,0,0,0,51.966,55.3a55.59,55.59,0,0,1-1.946,7.857c-1.916,5.225-3.2,5.315-3.253,5.316-.125,0-1.327-.112-3.392-5.017A39.84,39.84,0,0,1,40.685,51.7c-.633-5.37-1.287-10.923-6.063-17.938-8.358-12.281-3.32-26.926,6.262-30A21.4,21.4,0,0,1,58.661,6.18a1.391,1.391,0,0,0,1.482,0A21.407,21.407,0,0,1,77.922,3.765C87.693,6.9,92.382,21.7,84.193,33.751Z" transform="translate(-27.617 0)" fill="#006bca"/>
      </g>
    </g>
    <g id="Group_9847" data-name="Group 9847" transform="translate(8.191 10.618)">
      <g id="Group_9846" data-name="Group 9846">
        <path id="Path_4683" data-name="Path 4683" d="M105,84.706l-5.6-1.868-1.868-5.6a1.392,1.392,0,0,0-2.641,0l-1.868,5.6-5.6,1.868a1.392,1.392,0,0,0,0,2.641l5.6,1.868,1.868,5.6a1.392,1.392,0,0,0,2.641,0l1.868-5.6,5.6-1.868a1.392,1.392,0,0,0,0-2.641Zm-7.144,2.088a1.392,1.392,0,0,0-.88.88l-.767,2.3-.767-2.3a1.392,1.392,0,0,0-.88-.88l-2.3-.767,2.3-.767a1.392,1.392,0,0,0,.88-.88l.767-2.3.767,2.3a1.392,1.392,0,0,0,.88.88l2.3.767Z" transform="translate(-86.464 -76.283)" fill="#006bca"/>
      </g>
    </g>
  </g>
  <rect id="Rectangle_1080" data-name="Rectangle 1080" width="87" height="87" fill="none"/>
</svg>
